<svg xmlns="http://www.w3.org/2000/svg" xmlns:xlink="http://www.w3.org/1999/xlink" preserveAspectRatio="xMidYMid" width="214" height="499" viewBox="0 0 214 499">
  <defs>
    <style>

      .cls-2 {
        fill: #010101;
      }
    </style>
  </defs>
  <path d="M213.803,375.013 C213.803,375.013 124.823,486.559 124.823,486.559 C124.823,486.559 124.646,486.418 124.646,486.418 C124.646,486.418 114.000,499.000 114.000,499.000 C114.000,499.000 114.000,229.611 114.000,229.611 C114.000,229.611 61.168,138.623 61.168,138.623 C61.168,138.623 11.000,246.000 11.000,246.000 C11.000,246.000 0.000,241.000 0.000,241.000 C0.000,241.000 114.000,-0.000 114.000,-0.000 C114.000,-0.000 125.000,2.000 125.000,2.000 C125.000,2.000 125.000,224.113 125.000,224.113 C125.000,224.113 214.000,375.000 214.000,375.000 C214.000,375.000 213.803,375.013 213.803,375.013 ZM67.094,125.940 C67.094,125.940 114.000,205.464 114.000,205.464 C114.000,205.464 114.000,25.544 114.000,25.544 C114.000,25.544 67.094,125.940 67.094,125.940 ZM125.000,248.556 C125.000,248.556 125.000,468.698 125.000,468.698 C125.000,468.698 198.977,375.960 198.977,375.960 C198.977,375.960 125.000,248.556 125.000,248.556 Z" id="path-1" class="cls-2" fill-rule="evenodd"/>
</svg>
