<svg xmlns="http://www.w3.org/2000/svg" xmlns:xlink="http://www.w3.org/1999/xlink" preserveAspectRatio="xMidYMid" width="394" height="489" viewBox="0 0 394 489">
  <defs>
    <style>

      .cls-2 {
        fill: #000000;
      }
    </style>
  </defs>
  <path d="M385.387,157.076 C385.387,157.076 391.027,163.594 391.027,163.594 C391.027,163.594 387.292,167.000 387.292,167.000 C387.292,167.000 378.869,157.845 378.869,157.845 C374.864,157.576 371.953,155.977 370.135,153.047 C368.315,150.118 367.406,145.308 367.406,138.619 C367.406,138.619 367.406,110.201 367.406,110.201 C367.406,102.876 368.725,97.847 371.361,95.113 C373.436,92.965 376.452,91.890 380.407,91.890 C386.168,91.890 389.855,94.258 391.466,98.995 C392.418,101.802 392.895,105.538 392.895,110.201 C392.895,110.201 392.895,138.619 392.895,138.619 C392.895,145.308 391.954,150.191 390.075,153.267 C388.976,155.049 387.413,156.319 385.387,157.076 ZM385.314,109.761 C385.314,105.636 384.984,102.712 384.325,100.990 C383.666,99.269 382.335,98.409 380.333,98.409 C378.331,98.409 376.940,99.288 376.159,101.045 C375.377,102.803 374.987,105.696 374.987,109.725 C374.987,109.725 374.987,138.692 374.987,138.692 C374.987,143.599 375.328,146.938 376.012,148.708 C376.695,150.478 378.075,151.363 380.150,151.363 C382.225,151.363 383.605,150.466 384.289,148.671 C384.972,146.877 385.314,143.550 385.314,138.692 C385.314,138.692 385.314,109.761 385.314,109.761 ZM366.777,22.911 C366.777,22.911 367.217,39.170 367.217,39.170 C367.217,39.170 367.217,67.149 367.217,67.149 C367.217,67.149 360.222,67.149 360.222,67.149 C360.222,67.149 360.222,2.696 360.222,2.696 C360.222,2.696 365.935,2.696 365.935,2.696 C365.935,2.696 380.877,46.568 380.877,46.568 C380.877,46.568 380.107,27.928 380.107,27.928 C380.107,27.928 380.107,2.696 380.107,2.696 C380.107,2.696 386.809,2.696 386.809,2.696 C386.809,2.696 386.809,67.149 386.809,67.149 C386.809,67.149 381.243,67.149 381.243,67.149 C381.243,67.149 366.777,22.911 366.777,22.911 ZM360.749,117.635 C360.749,117.635 353.314,117.635 353.314,117.635 C353.314,117.635 353.314,110.457 353.314,110.457 C353.314,106.331 353.088,103.542 352.637,102.089 C352.185,100.637 351.642,99.672 351.007,99.196 C350.372,98.720 349.567,98.482 348.590,98.482 C346.564,98.482 345.166,99.440 344.397,101.357 C343.628,103.274 343.244,106.295 343.244,110.420 C343.244,110.420 343.244,138.326 343.244,138.326 C343.244,143.209 343.592,146.620 344.287,148.561 C344.983,150.502 346.326,151.473 348.316,151.473 C350.305,151.473 351.636,150.496 352.307,148.543 C352.979,146.590 353.314,143.172 353.314,138.289 C353.314,138.289 353.314,131.148 353.314,131.148 C353.314,131.148 360.822,131.148 360.822,131.148 C360.822,131.148 360.822,138.216 360.822,138.216 C360.822,144.979 359.900,149.953 358.057,153.139 C356.213,156.325 352.997,157.918 348.407,157.918 C343.817,157.918 340.546,156.276 338.593,152.992 C336.639,149.709 335.663,144.759 335.663,138.143 C335.663,138.143 335.663,111.299 335.663,111.299 C335.663,106.417 336.066,102.828 336.872,100.533 C337.677,98.238 338.556,96.554 339.508,95.479 C341.583,93.135 344.611,91.951 348.590,91.927 C354.157,91.951 357.746,94.405 359.357,99.288 C360.284,102.095 360.749,105.831 360.749,110.494 C360.749,110.494 360.749,117.635 360.749,117.635 ZM334.269,67.881 C329.568,67.881 326.261,66.343 324.344,63.267 C322.427,60.191 321.469,55.308 321.469,48.619 C321.469,48.619 321.469,20.201 321.469,20.201 C321.469,12.876 322.788,7.847 325.425,5.113 C327.499,2.965 330.515,1.890 334.470,1.890 C340.232,1.890 343.918,4.258 345.530,8.995 C346.482,11.802 346.958,15.538 346.958,20.201 C346.958,20.201 346.958,48.619 346.958,48.619 C346.958,55.333 346.018,60.222 344.138,63.285 C342.258,66.350 338.968,67.881 334.269,67.881 ZM339.377,19.761 C339.377,15.636 339.048,12.712 338.388,10.990 C337.729,9.269 336.398,8.409 334.397,8.409 C332.395,8.409 331.003,9.288 330.222,11.045 C329.440,12.803 329.050,15.696 329.050,19.725 C329.050,19.725 329.050,48.692 329.050,48.692 C329.050,53.599 329.392,56.938 330.075,58.708 C330.759,60.478 332.138,61.363 334.214,61.363 C336.288,61.363 337.668,60.466 338.352,58.671 C339.035,56.877 339.377,53.550 339.377,48.692 C339.377,48.692 339.377,19.761 339.377,19.761 ZM328.200,103.169 C328.346,104.732 328.419,107.167 328.419,110.475 C328.419,113.784 327.986,116.561 327.119,118.807 C326.253,121.053 324.721,122.505 322.523,123.165 C324.135,123.433 325.355,124.281 326.186,125.710 C327.015,127.138 327.601,129.408 327.943,132.521 C328.285,135.634 328.456,140.261 328.456,146.401 C328.456,152.541 328.651,156.124 329.042,157.149 C329.042,157.149 321.498,157.149 321.498,157.149 C321.107,156.368 320.912,149.129 320.912,135.433 C320.912,130.818 320.460,128.139 319.557,127.394 C318.654,126.650 317.287,126.277 315.456,126.277 C315.456,126.277 310.951,126.021 310.951,126.021 C310.951,126.021 310.951,157.149 310.951,157.149 C310.951,157.149 303.371,157.149 303.371,157.149 C303.371,157.149 303.371,92.696 303.371,92.696 C303.371,92.696 316.884,92.696 316.884,92.696 C320.716,92.696 323.476,93.489 325.160,95.076 C326.845,96.663 327.858,99.361 328.200,103.169 ZM320.912,108.479 C320.912,103.524 320.466,100.655 319.575,99.874 C318.684,99.092 317.396,98.702 315.712,98.702 C315.712,98.702 310.951,98.702 310.951,98.702 C310.951,98.702 310.951,120.455 310.951,120.455 C310.951,120.455 315.785,120.455 315.785,120.455 C317.250,120.455 318.324,120.174 319.008,119.612 C319.691,119.051 320.180,117.977 320.473,116.390 C320.766,114.803 320.912,112.313 320.912,108.919 C320.912,108.919 320.912,108.479 320.912,108.479 ZM296.523,25.639 C297.597,26.750 298.195,27.378 298.317,27.525 C298.317,27.525 302.712,32.176 302.712,32.176 C307.985,37.694 310.622,43.870 310.622,50.706 C310.622,56.272 309.761,60.527 308.040,63.469 C306.319,66.411 303.041,67.881 298.207,67.881 C292.372,67.881 288.673,65.318 287.111,60.191 C286.208,57.310 285.756,53.538 285.756,48.875 C285.756,48.753 285.756,48.631 285.756,48.509 C285.756,48.509 285.756,42.247 285.756,42.247 C285.756,42.247 293.117,42.247 293.117,42.247 C293.117,42.247 293.117,48.802 293.117,48.802 C293.117,53.514 293.459,56.791 294.143,58.635 C294.826,60.478 296.095,61.399 297.951,61.399 C299.806,61.399 301.088,60.966 301.796,60.099 C302.504,59.233 302.913,57.908 303.023,56.126 C303.133,54.344 303.188,52.342 303.188,50.120 C303.188,45.652 301.222,41.454 297.292,37.522 C297.292,37.522 293.081,33.311 293.081,33.311 C289.321,29.454 286.989,25.902 286.086,22.654 C285.646,21.116 285.427,19.273 285.427,17.125 C285.427,12.462 286.287,8.757 288.008,6.010 C289.730,3.263 293.019,1.890 297.878,1.890 C304.128,1.890 307.814,4.893 308.937,10.899 C309.426,13.487 309.670,16.746 309.670,20.677 C309.670,20.677 309.670,24.485 309.670,24.485 C309.670,24.485 302.419,24.485 302.419,24.485 C302.419,24.485 302.419,20.164 302.419,20.164 C302.419,16.062 302.211,13.304 301.796,11.888 C301.381,10.472 300.868,9.532 300.258,9.068 C299.648,8.604 298.854,8.372 297.878,8.372 C296.047,8.372 294.728,9.044 293.923,10.386 C293.117,11.729 292.714,13.719 292.714,16.355 C292.714,18.992 293.081,20.921 293.813,22.142 C294.545,23.363 295.448,24.528 296.523,25.639 ZM296.273,98.995 C296.273,98.995 284.591,98.995 284.591,98.995 C284.591,98.995 284.591,121.041 284.591,121.041 C284.591,121.041 295.651,121.041 295.651,121.041 C295.651,121.041 295.651,127.339 295.651,127.339 C295.651,127.339 284.591,127.339 284.591,127.339 C284.591,127.339 284.591,150.850 284.591,150.850 C284.591,150.850 296.420,150.850 296.420,150.850 C296.420,150.850 296.420,157.149 296.420,157.149 C296.420,157.149 277.011,157.149 277.011,157.149 C277.011,157.149 277.011,92.696 277.011,92.696 C277.011,92.696 296.273,92.696 296.273,92.696 C296.273,92.696 296.273,98.995 296.273,98.995 ZM252.812,92.696 C252.812,92.696 260.392,92.696 260.392,92.696 C260.392,92.696 260.392,150.887 260.392,150.887 C260.392,150.887 272.294,150.887 272.294,150.887 C272.294,150.887 272.294,157.149 272.294,157.149 C272.294,157.149 252.812,157.149 252.812,157.149 C252.812,157.149 252.812,92.696 252.812,92.696 ZM264.655,2.696 C264.655,2.696 272.236,2.696 272.236,2.696 C272.236,2.696 272.236,67.149 272.236,67.149 C272.236,67.149 264.655,67.149 264.655,67.149 C264.655,67.149 264.655,2.696 264.655,2.696 ZM234.545,2.696 C234.545,2.696 242.125,2.696 242.125,2.696 C242.125,2.696 242.125,60.887 242.125,60.887 C242.125,60.887 254.027,60.887 254.027,60.887 C254.027,60.887 254.027,67.149 254.027,67.149 C254.027,67.149 234.545,67.149 234.545,67.149 C234.545,67.149 234.545,2.696 234.545,2.696 ZM244.030,99.288 C244.957,102.095 245.421,105.831 245.421,110.494 C245.421,110.494 245.421,117.635 245.421,117.635 C245.421,117.635 237.987,117.635 237.987,117.635 C237.987,117.635 237.987,110.457 237.987,110.457 C237.987,106.331 237.761,103.542 237.310,102.089 C236.858,100.637 236.315,99.672 235.680,99.196 C235.045,98.720 234.239,98.482 233.263,98.482 C231.236,98.482 229.839,99.440 229.070,101.357 C228.301,103.274 227.917,106.295 227.917,110.420 C227.917,110.420 227.917,138.326 227.917,138.326 C227.917,143.209 228.264,146.620 228.960,148.561 C229.656,150.502 230.998,151.473 232.989,151.473 C234.978,151.473 236.308,150.496 236.980,148.543 C237.651,146.590 237.987,143.172 237.987,138.289 C237.987,138.289 237.987,131.148 237.987,131.148 C237.987,131.148 245.495,131.148 245.495,131.148 C245.495,131.148 245.495,138.216 245.495,138.216 C245.495,144.979 244.573,149.953 242.730,153.139 C240.886,156.325 237.670,157.918 233.080,157.918 C228.490,157.918 225.219,156.276 223.266,152.992 C221.312,149.709 220.336,144.759 220.336,138.143 C220.336,138.143 220.336,111.299 220.336,111.299 C220.336,106.417 220.739,102.828 221.544,100.533 C222.350,98.238 223.229,96.554 224.181,95.479 C226.256,93.135 229.284,91.951 233.263,91.927 C238.830,91.951 242.418,94.405 244.030,99.288 ZM205.021,2.696 C205.021,2.696 212.601,2.696 212.601,2.696 C212.601,2.696 212.601,60.887 212.601,60.887 C212.601,60.887 224.503,60.887 224.503,60.887 C224.503,60.887 224.503,67.149 224.503,67.149 C224.503,67.149 205.021,67.149 205.021,67.149 C205.021,67.149 205.021,2.696 205.021,2.696 ZM213.971,98.995 C213.971,98.995 202.289,98.995 202.289,98.995 C202.289,98.995 202.289,121.041 202.289,121.041 C202.289,121.041 213.349,121.041 213.349,121.041 C213.349,121.041 213.349,127.339 213.349,127.339 C213.349,127.339 202.289,127.339 202.289,127.339 C202.289,127.339 202.289,150.850 202.289,150.850 C202.289,150.850 214.118,150.850 214.118,150.850 C214.118,150.850 214.118,157.149 214.118,157.149 C214.118,157.149 194.708,157.149 194.708,157.149 C194.708,157.149 194.708,92.696 194.708,92.696 C194.708,92.696 213.971,92.696 213.971,92.696 C213.971,92.696 213.971,98.995 213.971,98.995 ZM184.908,54.844 C184.908,54.844 173.226,54.844 173.226,54.844 C173.226,54.844 171.541,67.149 171.541,67.149 C171.541,67.149 164.327,67.149 164.327,67.149 C164.327,67.149 174.105,2.696 174.105,2.696 C174.105,2.696 183.223,2.696 183.223,2.696 C183.223,2.696 193.880,67.149 193.880,67.149 C193.880,67.149 186.739,67.149 186.739,67.149 C186.739,67.149 184.908,54.844 184.908,54.844 ZM178.865,14.634 C178.865,14.634 178.756,14.634 178.756,14.634 C178.756,14.634 174.068,48.692 174.068,48.692 C174.068,48.692 183.956,48.692 183.956,48.692 C183.956,48.692 178.865,14.634 178.865,14.634 ZM184.096,97.255 C185.951,100.295 186.879,104.610 186.879,110.201 C186.879,110.201 186.916,138.509 186.916,138.509 C186.916,145.125 185.902,149.886 183.876,152.791 C181.849,155.697 178.443,157.149 173.659,157.149 C173.659,157.149 161.793,157.149 161.793,157.149 C161.793,157.149 161.793,92.696 161.793,92.696 C161.793,92.696 173.915,92.696 173.915,92.696 C178.846,92.696 182.240,94.216 184.096,97.255 ZM169.337,98.702 C169.337,98.702 169.337,151.033 169.337,151.033 C169.337,151.033 173.219,151.033 173.219,151.033 C174.684,151.033 175.831,150.740 176.662,150.154 C178.443,148.885 179.335,145.394 179.335,139.681 C179.335,139.681 179.335,110.018 179.335,110.018 C179.335,105.989 178.859,103.096 177.907,101.338 C176.955,99.581 175.392,98.702 173.219,98.702 C173.219,98.702 169.337,98.702 169.337,98.702 ZM169.536,247.149 C169.536,247.149 162.834,247.149 162.834,247.149 C162.834,247.149 162.834,182.696 162.834,182.696 C162.834,182.696 172.282,182.696 172.282,182.696 C172.282,182.696 181.511,235.687 181.511,235.687 C181.511,235.687 190.263,182.696 190.263,182.696 C190.263,182.696 199.748,182.696 199.748,182.696 C199.748,182.696 199.748,247.149 199.748,247.149 C199.748,247.149 193.010,247.149 193.010,247.149 C193.010,247.149 193.010,221.294 193.010,221.294 C193.010,221.294 193.633,197.198 193.633,197.198 C193.633,197.198 184.880,247.039 184.880,247.039 C184.880,247.039 178.032,247.039 178.032,247.039 C178.032,247.039 168.913,197.198 168.913,197.198 C168.913,197.198 169.536,221.294 169.536,221.294 C169.536,221.294 169.536,247.149 169.536,247.149 ZM209.807,367.498 C209.807,367.498 122.490,476.809 122.490,476.809 C122.490,476.809 122.316,476.671 122.316,476.671 C122.316,476.671 111.869,489.000 111.869,489.000 C111.869,489.000 111.869,225.010 111.869,225.010 C111.869,225.010 60.025,135.845 60.025,135.845 C60.025,135.845 10.794,241.070 10.794,241.070 C10.794,241.070 0.000,236.170 0.000,236.170 C0.000,236.170 111.869,-0.000 111.869,-0.000 C111.869,-0.000 122.664,1.960 122.664,1.960 C122.664,1.960 122.664,219.621 122.664,219.621 C122.664,219.621 210.000,367.485 210.000,367.485 C210.000,367.485 209.807,367.498 209.807,367.498 ZM111.869,25.032 C111.869,25.032 65.839,123.416 65.839,123.416 C65.839,123.416 111.869,201.346 111.869,201.346 C111.869,201.346 111.869,25.032 111.869,25.032 ZM122.664,243.574 C122.664,243.574 122.664,459.305 122.664,459.305 C122.664,459.305 195.258,368.426 195.258,368.426 C195.258,368.426 122.664,243.574 122.664,243.574 ZM218.717,182.696 C218.717,182.696 227.835,182.696 227.835,182.696 C227.835,182.696 238.492,247.149 238.492,247.149 C238.492,247.149 231.351,247.149 231.351,247.149 C231.351,247.149 229.520,234.844 229.520,234.844 C229.520,234.844 217.838,234.844 217.838,234.844 C217.838,234.844 216.153,247.149 216.153,247.149 C216.153,247.149 208.939,247.149 208.939,247.149 C208.939,247.149 218.717,182.696 218.717,182.696 ZM228.568,228.692 C228.568,228.692 223.477,194.634 223.477,194.634 C223.477,194.634 223.367,194.634 223.367,194.634 C223.367,194.634 218.680,228.692 218.680,228.692 C218.680,228.692 228.568,228.692 228.568,228.692 ZM263.722,188.995 C263.722,188.995 257.094,188.995 257.094,188.995 C257.094,188.995 257.094,247.149 257.094,247.149 C257.094,247.149 249.550,247.149 249.550,247.149 C249.550,247.149 249.550,188.995 249.550,188.995 C249.550,188.995 242.446,188.995 242.446,188.995 C242.446,188.995 242.446,182.696 242.446,182.696 C242.446,182.696 263.722,182.696 263.722,182.696 C263.722,182.696 263.722,188.995 263.722,188.995 ZM288.550,188.995 C288.550,188.995 281.922,188.995 281.922,188.995 C281.922,188.995 281.922,247.149 281.922,247.149 C281.922,247.149 274.378,247.149 274.378,247.149 C274.378,247.149 274.378,188.995 274.378,188.995 C274.378,188.995 267.273,188.995 267.273,188.995 C267.273,188.995 267.273,182.696 267.273,182.696 C267.273,182.696 288.550,182.696 288.550,182.696 C288.550,182.696 288.550,188.995 288.550,188.995 ZM303.929,209.722 C303.929,209.722 314.257,209.722 314.257,209.722 C314.257,209.722 314.257,182.696 314.257,182.696 C314.257,182.696 321.837,182.696 321.837,182.696 C321.837,182.696 321.837,247.149 321.837,247.149 C321.837,247.149 314.257,247.149 314.257,247.149 C314.257,247.149 314.257,215.911 314.257,215.911 C314.257,215.911 303.929,215.911 303.929,215.911 C303.929,215.911 303.929,247.149 303.929,247.149 C303.929,247.149 296.349,247.149 296.349,247.149 C296.349,247.149 296.349,182.696 296.349,182.696 C296.349,182.696 303.929,182.696 303.929,182.696 C303.929,182.696 303.929,209.722 303.929,209.722 ZM349.924,182.696 C349.924,182.696 360.581,247.149 360.581,247.149 C360.581,247.149 353.440,247.149 353.440,247.149 C353.440,247.149 351.609,234.844 351.609,234.844 C351.609,234.844 339.927,234.844 339.927,234.844 C339.927,234.844 338.242,247.149 338.242,247.149 C338.242,247.149 331.028,247.149 331.028,247.149 C331.028,247.149 340.805,182.696 340.805,182.696 C340.805,182.696 349.924,182.696 349.924,182.696 ZM350.656,228.692 C350.656,228.692 345.566,194.634 345.566,194.634 C345.566,194.634 345.456,194.634 345.456,194.634 C345.456,194.634 340.769,228.692 340.769,228.692 C340.769,228.692 350.656,228.692 350.656,228.692 ZM380.245,217.522 C380.245,217.522 376.033,213.311 376.033,213.311 C372.273,209.454 369.942,205.902 369.039,202.654 C368.599,201.116 368.380,199.273 368.380,197.125 C368.380,192.462 369.240,188.757 370.961,186.010 C372.683,183.263 375.972,181.890 380.831,181.890 C387.080,181.890 390.767,184.893 391.890,190.899 C392.378,193.487 392.623,196.746 392.623,200.677 C392.623,200.677 392.623,204.485 392.623,204.485 C392.623,204.485 385.372,204.485 385.372,204.485 C385.372,204.485 385.372,200.164 385.372,200.164 C385.372,196.063 385.164,193.304 384.749,191.888 C384.334,190.472 383.821,189.532 383.211,189.068 C382.601,188.604 381.807,188.372 380.831,188.372 C379.000,188.372 377.681,189.044 376.876,190.386 C376.070,191.729 375.667,193.719 375.667,196.355 C375.667,198.992 376.033,200.921 376.766,202.142 C377.498,203.363 378.401,204.528 379.476,205.639 C380.550,206.750 381.148,207.378 381.270,207.525 C381.270,207.525 385.665,212.176 385.665,212.176 C390.938,217.694 393.575,223.870 393.575,230.706 C393.575,236.272 392.714,240.527 390.993,243.469 C389.272,246.411 385.994,247.881 381.160,247.881 C375.325,247.881 371.626,245.318 370.064,240.191 C369.161,237.310 368.709,233.538 368.709,228.875 C368.709,228.753 368.709,228.631 368.709,228.509 C368.709,228.509 368.709,222.247 368.709,222.247 C368.709,222.247 376.070,222.247 376.070,222.247 C376.070,222.247 376.070,228.802 376.070,228.802 C376.070,233.514 376.412,236.791 377.095,238.635 C377.779,240.478 379.048,241.399 380.904,241.399 C382.759,241.399 384.041,240.966 384.749,240.099 C385.457,239.233 385.866,237.908 385.976,236.126 C386.086,234.344 386.141,232.342 386.141,230.120 C386.141,225.652 384.175,221.454 380.245,217.522 Z" id="path-1" class="cls-2" fill-rule="evenodd"/>
</svg>
